<svg width="18" height="19" viewBox="0 0 18 19" fill="none" xmlns="http://www.w3.org/2000/svg">
<path d="M8.47257 13.2729C7.12061 13.2729 6.5573 11.6366 6.44464 10.8184C6.24965 9.52042 5.97031 7.64554 5.7161 5.90944C5.94444 5.25492 6.29693 5.09128 6.44464 5.09128H15.5703C16.6519 5.09128 16.9223 5.90944 16.9223 6.31852C16.8096 7.27304 16.5167 9.59116 16.2463 11.2275C15.9759 12.8638 15.2323 13.2729 14.8944 13.2729H8.47257Z" fill="white"/>
<path d="M2.05078 1.00049H4.75469C4.86736 1.00049 5.09268 1.0823 5.09268 1.40957C5.09268 1.59523 5.38278 3.63303 5.7161 5.90944M5.7161 5.90944C5.97031 7.64554 6.24965 9.52042 6.44464 10.8184C6.5573 11.6366 7.12061 13.2729 8.47257 13.2729C9.82453 13.2729 13.3171 13.2729 14.8944 13.2729C15.2323 13.2729 15.9759 12.8638 16.2463 11.2275C16.5167 9.59116 16.8096 7.27304 16.9223 6.31852C16.9223 5.90944 16.6519 5.09128 15.5703 5.09128C14.4888 5.09128 9.03588 5.09128 6.44464 5.09128C6.29693 5.09128 5.94444 5.25492 5.7161 5.90944Z" stroke="white" stroke-linejoin="round"/>
<path d="M3.12814 1C-1.61789 1 0.0719878 1 1.51018 1" stroke="white" stroke-linejoin="round"/>
<path d="M6.84678 17.1592C6.84678 18.1759 6.01451 19.0001 4.98785 19.0001C3.96118 19.0001 3.12891 18.1759 3.12891 17.1592C3.12891 16.1425 3.96118 15.3184 4.98785 15.3184C6.01451 15.3184 6.84678 16.1425 6.84678 17.1592Z" fill="white"/>
<path d="M18.0004 17.1592C18.0004 18.1759 17.1681 19.0001 16.1415 19.0001C15.1148 19.0001 14.2825 18.1759 14.2825 17.1592C14.2825 16.1425 15.1148 15.3184 16.1415 15.3184C17.1681 15.3184 18.0004 16.1425 18.0004 17.1592Z" fill="white"/>
</svg>
