<svg width="35" height="35" viewBox="0 0 35 35" fill="#414141" xmlns="http://www.w3.org/2000/svg">
<g id="feather-icon / credit-card">
<path id="Rectangle-path (Stroke)" fill-rule="evenodd" clip-rule="evenodd" d="M0.728516 8.75033C0.728516 6.73679 2.36081 5.10449 4.37435 5.10449H30.6243C32.6379 5.10449 34.2702 6.73679 34.2702 8.75033V26.2503C34.2702 28.2639 32.6379 29.8962 30.6243 29.8962H4.37435C2.36081 29.8962 0.728516 28.2639 0.728516 26.2503V8.75033ZM4.37435 6.56283C3.16623 6.56283 2.18685 7.5422 2.18685 8.75033V26.2503C2.18685 27.4584 3.16623 28.4378 4.37435 28.4378H30.6243C31.8325 28.4378 32.8118 27.4584 32.8118 26.2503V8.75033C32.8118 7.5422 31.8325 6.56283 30.6243 6.56283H4.37435Z" />
<path id="Shape (Stroke)" fill-rule="evenodd" clip-rule="evenodd" d="M0.728516 14.5837C0.728516 14.181 1.05497 13.8545 1.45768 13.8545H33.541C33.9437 13.8545 34.2702 14.181 34.2702 14.5837C34.2702 14.9864 33.9437 15.3128 33.541 15.3128H1.45768C1.05497 15.3128 0.728516 14.9864 0.728516 14.5837Z" />
</g>
</svg>
