<?xml version="1.0" encoding="UTF-8" standalone="no" ?>
<!DOCTYPE svg PUBLIC "-//W3C//DTD SVG 1.1//EN" "http://www.w3.org/Graphics/SVG/1.1/DTD/svg11.dtd">
<svg xmlns="http://www.w3.org/2000/svg" xmlns:xlink="http://www.w3.org/1999/xlink" version="1.1" width="400" height="400" viewBox="0 0 400 400" xml:space="preserve">
<desc>Created with Fabric.js 3.6.2</desc>
<defs>
</defs>
<g transform="matrix(0.45 0 0 0.45 200 200)" id="path3263"  >
<path style="stroke: rgb(0,0,0); stroke-width: 50.71590042; stroke-dasharray: none; stroke-linecap: butt; stroke-dashoffset: 0; stroke-linejoin: miter; stroke-miterlimit: 4; fill: none; fill-rule: nonzero; opacity: 1;"  transform=" translate(-461.05, -461.05)" d="M 461.047 656.303 C 353.213 656.303 265.794 568.884 265.794 461.05 C 265.794 353.212 353.213 265.794 461.047 265.794 C 568.885 265.794 656.303 353.212 656.303 461.05 C 656.303 568.884 568.885 656.303 461.047 656.303 z" stroke-linecap="round" />
</g>
<g transform="matrix(0.45 0 0 0.45 -8.99 -8.99)" id="path3265"  >
<path style="stroke: rgb(0,0,0); stroke-width: 50.71590042; stroke-dasharray: none; stroke-linecap: butt; stroke-dashoffset: 0; stroke-linejoin: miter; stroke-miterlimit: 4; fill: none; fill-rule: nonzero; opacity: 1;"  transform=" translate(0, 0)" d="" stroke-linecap="round" />
</g>
<g transform="matrix(0.45 0 0 0.45 198.91 199.69)" id="path3267"  >
<path style="stroke: none; stroke-width: 1; stroke-dasharray: none; stroke-linecap: butt; stroke-dashoffset: 0; stroke-linejoin: miter; stroke-miterlimit: 4; fill: rgb(0,0,0); fill-rule: nonzero; opacity: 1;"  transform=" translate(-218.2, -219.92)" d="M 194.65625 69.375 L 194.65625 101.875 C 181.50525 101.875 122.34375 118.62875 122.34375 172.34375 C 122.34375 220.12875 165.036 233.13724 194.625 237.40625 L 194.65625 291.40625 C 173.05125 285.23925 169.125 268.61599 166.125 254.875 L 118.6875 254.875 C 121.6235 308.616 168.82425 333.61025 194.65625 337.40625 L 194.65625 370.46875 L 239.75 370.46875 L 239.75 337.90625 C 275.445 336.00825 317.71876 305.18449 317.71875 262.9375 C 317.71875 214.5515 275.61 200.817 239.75 197.125 L 239.75 147.625 C 253.86 148.625 264.8705 162.625 266.0625 176.875 L 313.03125 176.875 C 313.03125 128.875 269.36025 103.625 239.28125 101.875 L 239.28125 69.375 L 194.65625 69.375 z M 194.90625 148.09375 L 194.90625 189.125 C 163.11824 188.625 162.50025 153.78675 194.90625 148.09375 z M 240.28125 245.125 C 279.61824 246.125 283.97475 285.37925 240.21875 291.65625 L 240.28125 245.125 z" stroke-linecap="round" />
</g>
<g transform="matrix(0.45 0 0 0.45 208.9 221.65)" id="path3277"  >
<path style="stroke: none; stroke-width: 1; stroke-dasharray: none; stroke-linecap: butt; stroke-dashoffset: 0; stroke-linejoin: miter; stroke-miterlimit: 4; fill: rgb(255,255,255); fill-rule: nonzero; opacity: 1;"  transform=" translate(-240.25, -268.38)" d="M 240.22995 291.64095 L 240.27395 245.11395" stroke-linecap="round" />
</g>
</svg>