<svg width="35" height="35" viewBox="0 0 35 35" fill="#414141" xmlns="http://www.w3.org/2000/svg">
<g id="feather-icon / heart">
<path id="Shape (Stroke)" fill-rule="evenodd" clip-rule="evenodd" d="M18.5282 6.2077C20.1693 4.56595 22.3954 3.64355 24.7167 3.64355C27.038 3.64355 29.2641 4.5659 30.9051 6.20758C32.5468 7.84862 33.4694 10.075 33.4694 12.3962C33.4694 14.7175 32.547 16.9437 30.9052 18.5847C30.9052 18.5848 30.9053 18.5847 30.9052 18.5847L18.0136 31.4764C17.7288 31.7612 17.2671 31.7612 16.9824 31.4764L4.09071 18.5847C0.672888 15.1669 0.672888 9.62552 4.09071 6.2077C7.50853 2.78988 13.0499 2.78988 16.4677 6.2077L17.498 7.23794L18.5282 6.2077C18.5283 6.20766 18.5282 6.20774 18.5282 6.2077ZM24.7167 5.10189C22.7823 5.10189 20.9271 5.87058 19.5595 7.23878L18.0136 8.78473C17.8768 8.92148 17.6914 8.9983 17.498 8.9983C17.3046 8.9983 17.1191 8.92148 16.9824 8.78473L15.4365 7.2389C12.5882 4.39059 7.97022 4.39059 5.12191 7.2389C2.2736 10.0872 2.2736 14.7052 5.12191 17.5535L17.498 29.9296L29.874 17.5535C31.2422 16.186 32.0111 14.3307 32.0111 12.3962C32.0111 10.4618 31.2424 8.60657 29.8742 7.23902C28.5066 5.87083 26.6512 5.10189 24.7167 5.10189Z" />
</g>
</svg>
