<svg width="35" height="35" viewBox="0 0 35 35" fill="#414141" xmlns="http://www.w3.org/2000/svg">
<g id="feather-icon / home">
<path id="Shape (Stroke)" fill-rule="evenodd" clip-rule="evenodd" d="M17.053 2.3411C17.3163 2.1363 17.685 2.1363 17.9483 2.3411L31.0733 12.5494C31.2509 12.6876 31.3548 12.9 31.3548 13.125V29.1667C31.3548 31.1802 29.7225 32.8125 27.709 32.8125H7.29232C5.27878 32.8125 3.64648 31.1802 3.64648 29.1667V13.125C3.64648 12.9 3.75037 12.6876 3.92799 12.5494L17.053 2.3411ZM5.10482 13.4816V29.1667C5.10482 30.3748 6.08419 31.3542 7.29232 31.3542H27.709C28.9171 31.3542 29.8965 30.3748 29.8965 29.1667V13.4816L17.5007 3.84042L5.10482 13.4816Z" />
<path id="Shape (Stroke)_2" fill-rule="evenodd" clip-rule="evenodd" d="M12.3965 17.4997C12.3965 17.097 12.7229 16.7705 13.1257 16.7705H21.8757C22.2784 16.7705 22.6048 17.097 22.6048 17.4997V32.083C22.6048 32.4857 22.2784 32.8122 21.8757 32.8122C21.4729 32.8122 21.1465 32.4857 21.1465 32.083V18.2288H13.8548V32.083C13.8548 32.4857 13.5284 32.8122 13.1257 32.8122C12.7229 32.8122 12.3965 32.4857 12.3965 32.083V17.4997Z" />
</g>
</svg>
