<svg width="15" height="18" viewBox="0 0 15 18" fill="none" xmlns="http://www.w3.org/2000/svg">
<path id="Union" fill-rule="evenodd" clip-rule="evenodd" d="M4.03448 3H2.87014C1.81721 3 0.94461 3.81637 0.87457 4.86696L0.141237 15.867C0.0642792 17.0213 0.979879 18 2.13681 18H12.8613C14.0182 18 14.9338 17.0213 14.8568 15.867L14.1235 4.86696C14.0535 3.81637 13.1809 3 12.1279 3H10.9636C10.721 1.30385 9.26227 0 7.49903 0C5.7358 0 4.27709 1.30385 4.03448 3ZM5.04904 3H9.94903C9.71739 1.85888 8.70851 1 7.49903 1C6.28956 1 5.28068 1.85888 5.04904 3Z" fill="white"/>
</svg>
