<svg width="35" height="35" viewBox="0 0 35 35" fill="#414141" xmlns="http://www.w3.org/2000/svg">
<g id="feather-icon / settings">
<path id="Oval (Stroke)" fill-rule="evenodd" clip-rule="evenodd" d="M12.3965 17.4997C12.3965 14.6807 14.6817 12.3955 17.5007 12.3955C20.3196 12.3955 22.6048 14.6807 22.6048 17.4997C22.6048 20.3186 20.3196 22.6038 17.5007 22.6038C14.6817 22.6038 12.3965 20.3186 12.3965 17.4997ZM17.5007 13.8538C15.4871 13.8538 13.8548 15.4861 13.8548 17.4997C13.8548 19.5132 15.4871 21.1455 17.5007 21.1455C19.5142 21.1455 21.1465 19.5132 21.1465 17.4997C21.1465 15.4861 19.5142 13.8538 17.5007 13.8538Z" />
<path id="Shape (Stroke)" fill-rule="evenodd" clip-rule="evenodd" d="M17.4993 2.18783C16.2912 2.18783 15.3118 3.1672 15.3118 4.37533V4.62324L15.3118 4.62615C15.3069 5.87584 14.5602 7.00324 13.4116 7.49553C13.3294 7.53075 13.2415 7.55053 13.1524 7.55395C12.0145 7.98778 10.7212 7.72372 9.84363 6.86533L9.83789 6.85971L9.75042 6.77217C9.34011 6.36141 8.78306 6.13032 8.20247 6.13032C7.62189 6.13032 7.06512 6.36112 6.65482 6.77189C6.24406 7.18219 6.01268 7.73953 6.01268 8.32012C6.01268 8.9007 6.24348 9.45747 6.65424 9.86777L6.74772 9.96125C7.63863 10.872 7.88929 12.2307 7.38399 13.3986C6.93403 14.595 5.80206 15.3994 4.52265 15.4293L4.5056 15.4297L4.37435 15.4295C3.16623 15.4295 2.18685 16.4089 2.18685 17.617C2.18685 18.8251 3.16623 19.8045 4.37435 19.8045H4.62517C5.87358 19.8095 6.99994 20.5546 7.49303 21.7012C8.00845 22.873 7.75971 24.2407 6.86435 25.156L6.85873 25.1618L6.7712 25.2493C6.36044 25.6596 6.12935 26.2166 6.12935 26.7972C6.12935 27.3778 6.36015 27.9346 6.77091 28.3449C7.18121 28.7556 7.73856 28.987 8.31914 28.987C8.89972 28.987 9.45649 28.7562 9.8668 28.3454L9.96027 28.252C10.871 27.361 12.2297 27.1104 13.3976 27.6157C14.594 28.0656 15.3984 29.1976 15.4283 30.477L15.4287 30.4941L15.4285 30.6253C15.4285 31.8334 16.4079 32.8128 17.616 32.8128C18.8241 32.8128 19.8035 31.8334 19.8035 30.6253V30.3774L19.8035 30.3745C19.8085 29.1261 20.5536 27.9998 21.7002 27.5067C22.872 26.9912 24.2397 27.2399 25.1551 28.1353L25.1608 28.1409L25.2483 28.2285C25.6586 28.6392 26.2156 28.8703 26.7962 28.8703C27.3768 28.8703 27.9336 28.6395 28.3439 28.2288C28.7546 27.8185 28.986 27.2611 28.986 26.6805C28.986 26.0999 28.7552 25.5432 28.3445 25.1329L28.251 25.0394C27.3556 24.1241 27.1069 22.7563 27.6224 21.5845C28.1155 20.4379 29.2418 19.6928 30.4902 19.6878L30.4931 19.6878L30.6243 19.6878C31.8325 19.6878 32.8118 18.7084 32.8118 17.5003C32.8118 16.2922 31.8325 15.3128 30.6243 15.3128H30.3764L30.3735 15.3128C29.1238 15.3078 27.9964 14.5612 27.5041 13.4126C27.4689 13.3304 27.4491 13.2425 27.4457 13.1533C27.0119 12.0155 27.276 10.7221 28.1343 9.84461L28.14 9.83886L28.2275 9.7514C28.6383 9.34109 28.8694 8.78403 28.8694 8.20345C28.8694 7.62287 28.6385 7.0661 28.2278 6.65579C27.8175 6.24503 27.2601 6.01366 26.6796 6.01366C26.099 6.01366 25.5422 6.24446 25.1319 6.65522L25.0384 6.74869C24.1231 7.64406 22.7554 7.89276 21.5836 7.37734C20.4369 6.88425 19.6918 5.75788 19.6869 4.50948L19.6868 4.50658V4.37533C19.6868 3.1672 18.7075 2.18783 17.4993 2.18783ZM13.8535 4.37533C13.8535 2.36179 15.4858 0.729492 17.4993 0.729492C19.5129 0.729492 21.1452 2.36179 21.1452 4.37533V4.50494C21.1483 5.17287 21.5476 5.7753 22.1616 6.03845L22.1688 6.04153C22.7949 6.31786 23.5259 6.18604 24.016 5.70872L24.1001 5.6246C24.784 4.93999 25.7119 4.55532 26.6796 4.55532C27.6469 4.55532 28.5746 4.93978 29.2584 5.62402C29.943 6.30786 30.3277 7.23581 30.3277 8.20345C30.3277 9.17109 29.943 10.099 29.2584 10.7829L29.1742 10.867C28.697 11.3571 28.5651 12.0882 28.8414 12.7142C28.8756 12.7916 28.8959 12.8742 28.9018 12.9582C29.1885 13.5037 29.7548 13.8515 30.3781 13.8545H30.6243C32.6379 13.8545 34.2702 15.4868 34.2702 17.5003C34.2702 19.5139 32.6379 21.1462 30.6243 21.1462H30.4947C29.8268 21.1493 29.2244 21.5486 28.9612 22.1626L28.9581 22.1698C28.6818 22.7959 28.8136 23.5269 29.291 24.017L29.3751 24.1011C30.0597 24.7849 30.4444 25.7129 30.4444 26.6805C30.4444 27.648 30.0598 28.5759 29.3754 29.2597C28.6916 29.9441 27.7637 30.3287 26.7962 30.3287C25.8286 30.3287 24.9006 29.944 24.2168 29.2594L24.1327 29.1753C23.6426 28.6979 22.9115 28.5661 22.2854 28.8424L22.2783 28.8456C21.6643 29.1087 21.265 29.7111 21.2618 30.379V30.6253C21.2618 32.6389 19.6296 34.2712 17.616 34.2712C15.6025 34.2712 13.9702 32.6389 13.9702 30.6253V30.5034C13.951 29.8181 13.5165 29.2132 12.8727 28.9763C12.8582 28.971 12.844 28.9653 12.8299 28.9591C12.2039 28.6828 11.4728 28.8146 10.9827 29.2919L10.8986 29.3761C10.2147 30.0607 9.28678 30.4453 8.31914 30.4453C7.3515 30.4453 6.42356 30.0607 5.73971 29.3761C5.05547 28.6923 4.67101 27.7646 4.67101 26.7972C4.67101 25.8296 5.05568 24.9016 5.74029 24.2178L5.82441 24.1336C6.30173 23.6436 6.43358 22.9125 6.15726 22.2864L6.1541 22.2792C5.89095 21.6652 5.28856 21.266 4.62063 21.2628H4.37435C2.36081 21.2628 0.728516 19.6305 0.728516 17.617C0.728516 15.6035 2.36081 13.9712 4.37435 13.9712H4.49629C5.18155 13.952 5.78652 13.5175 6.02333 12.8736C6.02864 12.8592 6.03439 12.845 6.04059 12.8309C6.31692 12.2048 6.18506 11.4738 5.70774 10.9837L5.62362 10.8995C4.93902 10.2157 4.55435 9.28775 4.55435 8.32012C4.55435 7.35261 4.93891 6.42479 5.62333 5.74098C6.30715 5.05655 7.23497 4.67199 8.20247 4.67199C9.17011 4.67199 10.0981 5.05666 10.7819 5.74126L10.866 5.82539C11.3561 6.3027 12.0872 6.43456 12.7133 6.15824C12.7906 6.1241 12.8732 6.10373 12.9573 6.0979C13.5027 5.81116 13.8506 5.24491 13.8535 4.62161V4.37533Z" />
</g>
</svg>
