<svg width="35" height="35" viewBox="0 0 35 35" fill="#414141" xmlns="http://www.w3.org/2000/svg">
<g id="feather-icon / shopping-cart">
<path id="Oval (Stroke)" fill-rule="evenodd" clip-rule="evenodd" d="M8.02148 30.6253C8.02148 28.6118 9.65378 26.9795 11.6673 26.9795C13.6809 26.9795 15.3132 28.6118 15.3132 30.6253C15.3132 32.6389 13.6809 34.2712 11.6673 34.2712C9.65378 34.2712 8.02148 32.6389 8.02148 30.6253ZM11.6673 28.4378C10.4592 28.4378 9.47982 29.4172 9.47982 30.6253C9.47982 31.8334 10.4592 32.8128 11.6673 32.8128C12.8754 32.8128 13.8548 31.8334 13.8548 30.6253C13.8548 29.4172 12.8754 28.4378 11.6673 28.4378Z" />
<path id="Oval (Stroke)_2" fill-rule="evenodd" clip-rule="evenodd" d="M25.5215 30.6253C25.5215 28.6118 27.1538 26.9795 29.1673 26.9795C31.1809 26.9795 32.8132 28.6118 32.8132 30.6253C32.8132 32.6389 31.1809 34.2712 29.1673 34.2712C27.1538 34.2712 25.5215 32.6389 25.5215 30.6253ZM29.1673 28.4378C27.9592 28.4378 26.9798 29.4172 26.9798 30.6253C26.9798 31.8334 27.9592 32.8128 29.1673 32.8128C30.3754 32.8128 31.3548 31.8334 31.3548 30.6253C31.3548 29.4172 30.3754 28.4378 29.1673 28.4378Z" />
<path id="Union" fill-rule="evenodd" clip-rule="evenodd" d="M1.45768 0.729492C1.05497 0.729492 0.728516 1.05595 0.728516 1.45866C0.728516 1.86137 1.05497 2.18783 1.45768 2.18783H6.67926C7.78368 8.44622 8.90003 14.6774 9.84209 20.9578C10.1098 22.7425 11.6429 24.0628 13.4476 24.0628H28.2322C29.9701 24.0628 31.4664 22.8361 31.8072 21.132L33.9061 10.6377C34.1768 9.28406 33.1415 8.02116 31.7611 8.02116H10.4417C9.99988 8.02116 9.59223 8.15097 9.25154 8.37251L8.00909 1.33194C7.9476 0.983503 7.64484 0.729492 7.29102 0.729492H1.45768ZM9.72059 10.3168C9.65446 9.87597 9.9959 9.47949 10.4417 9.47949H31.7611C32.2212 9.47949 32.5663 9.90046 32.4761 10.3517L30.3772 20.846C30.1727 21.8685 29.2749 22.6045 28.2322 22.6045H13.4476C12.3648 22.6045 11.4449 21.8123 11.2843 20.7415L9.72059 10.3168Z" />
</g>
</svg>
